<?xml version="1.0" encoding="UTF-8" standalone="no"?>
<svg
   xmlns:dc="http://purl.org/dc/elements/1.1/"
   xmlns:cc="http://creativecommons.org/ns#"
   xmlns:rdf="http://www.w3.org/1999/02/22-rdf-syntax-ns#"
   xmlns:svg="http://www.w3.org/2000/svg"
   xmlns="http://www.w3.org/2000/svg"
   xmlns:sodipodi="http://sodipodi.sourceforge.net/DTD/sodipodi-0.dtd"
   xmlns:inkscape="http://www.inkscape.org/namespaces/inkscape"
   version="1.1"
   id="svg482"
   width="1024"
   height="1024"
   viewBox="0 0 1024 1024"
   sodipodi:docname="Nuclear_symbol.svg"
   inkscape:version="1.0.2 (e86c870879, 2021-01-15, custom)">
  <metadata
     id="metadata488">
    <rdf:RDF>
      <cc:Work
         rdf:about="">
        <dc:format>image/svg+xml</dc:format>
        <dc:type
           rdf:resource="http://purl.org/dc/dcmitype/StillImage" />
        <dc:title></dc:title>
      </cc:Work>
    </rdf:RDF>
  </metadata>
  <defs
     id="defs486">
    <filter
       style="color-interpolation-filters:sRGB;"
       inkscape:label="Brilliance"
       id="filter588">
      <feColorMatrix
         values="9.8742 -0.316287 -0.316287 0 -0.215345 -0.316287 9.8742 -0.316287 0 -0.215345 -0.316287 -0.316287 9.8742 0 -0.215345 0 0 0 1 0 "
         id="feColorMatrix586" />
    </filter>
  </defs>
  <sodipodi:namedview
     pagecolor="#ffffff"
     bordercolor="#666666"
     borderopacity="1"
     objecttolerance="10"
     gridtolerance="10"
     guidetolerance="10"
     inkscape:pageopacity="0"
     inkscape:pageshadow="2"
     inkscape:window-width="1076"
     inkscape:window-height="1837"
     id="namedview484"
     showgrid="false"
     inkscape:zoom="0.30284503"
     inkscape:cx="725.88838"
     inkscape:cy="1014.6679"
     inkscape:window-x="0"
     inkscape:window-y="64"
     inkscape:window-maximized="0"
     inkscape:current-layer="g490" />
  <g
     inkscape:groupmode="layer"
     inkscape:label="Image"
     id="g490">
    <path
       style="fill:#000000"
       d="m 479.65993,1013.5241 c -54.00195,-3.5681 -105.92571,-15.09866 -153.1476,-34.00923 -35.22251,-14.10528 -61.40274,-27.81229 -92.5,-48.42962 C 139.40443,868.36066 69.555694,776.32472 34.700044,668.46214 c -16.15535,-49.99358 -23.58523,-98.17756 -23.57929,-152.9156 0.005,-46.09534 4.46137,-82.06365 15.46902,-124.85367 C 64.705214,242.52684 170.85909,118.25811 310.76907,58.01922 360.10554,36.77717 406.41349,24.80595 462.01233,18.92084 c 22.1766,-2.34738 72.8234,-2.34738 95,0 42.28297,4.47564 75.81653,11.69266 112.72379,24.2602 73.71279,25.10044 137.00232,64.54205 192.30097,119.84072 55.8187,55.81871 95.8249,120.39767 120.5066,194.52478 17.67571,53.08613 25.36331,100.9753 25.36331,158 0,44.50223 -4.0689,78.50332 -14.45141,120.76193 -22.927,93.31664 -75.9385,182.39973 -146.7329,246.57719 -26.8443,24.33522 -60.04803,48.73494 -88.71036,65.18872 -55.53237,31.87866 -121.08342,54.02852 -183.38545,61.96642 -29.33314,3.7373 -69.06556,5.1946 -94.96695,3.4833 z m 76.8524,-83.35533 c 38.33461,-4.94581 66.49947,-11.78929 99.5,-24.17643 28.25309,-10.60514 62.11779,-27.39349 61.0212,-30.25114 -0.72595,-1.8918 -143.5221,-249.42145 -144.52124,-250.52001 -0.41286,-0.45394 -3.84425,0.73143 -7.62531,2.63415 -16.63034,8.36879 -35.47161,12.68481 -55.37465,12.68481 -19.90304,0 -38.74431,-4.31602 -55.37465,-12.68481 -3.78106,-1.90272 -7.21304,-3.08809 -7.62662,-2.63415 -1.00473,1.1028 -143.7715,248.56963 -144.50355,250.47731 -1.51384,3.94502 49.62572,27.48797 82.00482,37.75228 23.96892,7.59826 58.22657,14.63324 83,17.04447 6.05,0.58885 12.575,1.24786 14.5,1.46447 8.36428,0.94117 64.14845,-0.39092 75,-1.79095 z M 526.30449,596.96242 c 30.21708,-6.21022 54.79423,-29.11516 63.4326,-59.1167 1.86097,-6.46325 2.24816,-10.28289 2.26043,-22.29918 0.0179,-17.47749 -1.25427,-23.05053 -8.67397,-38 -4.5948,-9.25775 -6.40036,-11.69414 -15.26129,-20.59329 -8.96869,-9.00739 -11.17959,-10.64833 -20.54993,-15.25224 -15.04477,-7.39192 -20.58836,-8.65447 -38,-8.65447 -17.41164,0 -22.95523,1.26255 -38,8.65447 -9.37034,4.60391 -11.58124,6.24485 -20.54993,15.25224 -8.86572,8.90396 -10.66344,11.33054 -15.25645,20.59329 -6.71074,13.53356 -8.31033,19.76021 -8.92957,34.75966 -0.42344,10.25664 -0.15305,13.78762 1.65494,21.61174 7.27348,31.47617 32.32369,56.28517 63.58101,62.96877 9.3248,1.99388 24.79276,2.02803 34.29216,0.0757 z M 384.51552,509.29654 c 0.007,-13.85919 5.26285,-34.32539 12.57341,-48.9615 9.45101,-18.92141 24.91935,-36.88036 41.16101,-47.7885 4.50407,-3.025 8.09318,-5.78588 7.9758,-6.1353 -0.66812,-1.98887 -145.31598,-251.83767 -145.80638,-251.8499 -0.32614,-0.008 -5.58347,3.1116 -11.68296,6.93275 -45.1299,28.27254 -84.1468,64.5053 -115.81683,107.55245 -48.67598,66.1623 -77.134816,147.61986 -80.093096,229.25 l -0.62514,17.25 h 146.155496 146.1555 l 0.003,-6.25 z m 541.67477,-11 c -4.6545,-126.83954 -69.4829,-247.27921 -172.995,-321.3939 -11.47131,-8.21347 -33.3911,-22.37122 -34.58999,-22.3413 -0.4904,0.0122 -145.13826,249.86103 -145.80638,251.8499 -0.11738,0.34942 3.47173,3.1103 7.9758,6.1353 16.24166,10.90814 31.71,28.86709 41.16101,47.7885 7.31056,14.63611 12.56632,35.10231 12.57341,48.9615 l 0.003,6.25 h 146.1555 146.15546 z"
       id="path590" />
  </g>
</svg>
